PathFileType	3	(X/Y/Z)	E:\ViconData\BIOM9541 2025\Week 7\Wed1100\Hanif 90 squat 2-5 Squat 01.trc
DataRate	CameraRate	NumFrames	NumMarkers	Units	OrigDataRate	OrigDataStartFrame	OrigNumFrames
200.0	200.0	13	19	mm	200.0	184	1467	
Frame#	Time	C7			CLAV			RBAK			LASI			RASI			LPSI			RPSI			LTHI			LKNE			LTIB			LANK			LHEE			LTOE			RTHI			RKNE			RTIB			RANK			RHEE			RTOE			
		X1	Y1	Z1	X2	Y2	Z2	X3	Y3	Z3	X4	Y4	Z4	X5	Y5	Z5	X6	Y6	Z6	X7	Y7	Z7	X8	Y8	Z8	X9	Y9	Z9	X10	Y10	Z10	X11	Y11	Z11	X12	Y12	Z12	X13	Y13	Z13	X14	Y14	Z14	X15	Y15	Z15	X16	Y16	Z16	X17	Y17	Z17	X18	Y18	Z18	X19	Y19	Z19	
184	0.915	288.81952	1032.9784	-1212.8264	150.48775	946.58673	-1204.9489	318.43298	953.45953	-1361.189	256.3009	590.83765	-1088.1687	251.76105	608.172	-1347.0389	422.70013	665.04779	-1169.0227	423.57935	663.38385	-1243.5079	160.93501	451.98141	-922.10529	82.389359	347.39359	-881.42786	205.35619	179.87331	-913.21063	299.44669	67.58847	-970.42358	320.15186	54.975891	-1028.5975	161.5981	39.053162	-938.47137	285.30139	547.26874	-1431.1273	92.703819	341.42178	-1531.9788	132.86331	267.67667	-1530.6658	289.67731	71.428345	-1447.813	317.9469	53.967484	-1377.0027	162.53893	40.899921	-1474.8292
185	0.92	288.53976	1030.3149	-1213.0328	150.2962	943.87744	-1205.1565	318.09387	950.78442	-1361.3418	256.40182	588.2843	-1088.3832	252.08389	605.69281	-1347.1896	422.87085	662.46643	-1169.165	423.81671	660.89154	-1243.5234	160.78162	451.06085	-922.0769	81.874054	346.92557	-881.16522	205.07344	179.64828	-913.1983	299.10733	67.047752	-970.63165	320.04477	55.025181	-1028.7104	161.57292	39.056137	-938.4989	285.78922	545.38739	-1431.1462	92.257782	340.87042	-1532.5339	132.40987	267.22772	-1531.0713	289.64169	71.450294	-1447.8265	318.02777	54.025093	-1377.0857	162.51465	40.873695	-1474.8219
186	0.925	288.24164	1027.8105	-1213.1067	150.05637	941.09167	-1205.2339	317.85196	948.24139	-1361.5186	256.6145	585.74994	-1088.6967	252.34854	603.4455	-1347.5164	423.03043	659.97931	-1169.0321	423.97055	658.27081	-1243.4666	160.57288	450.06665	-922.07727	81.324615	346.44034	-880.93433	204.73112	179.41739	-913.18219	298.97903	67.095451	-970.68439	319.90424	55.107109	-1028.7976	161.56966	39.078342	-938.43854	286.17111	543.67993	-1431.301	91.758461	340.32251	-1533.0095	131.94374	266.84695	-1531.4716	289.56741	71.529892	-1447.8201	317.82434	54.135082	-1376.8474	162.46994	40.886974	-1474.8147
187	0.93	287.94345	1025.2307	-1213.209	149.82196	938.43695	-1205.3186	317.63275	945.71045	-1361.7125	256.59494	583.30756	-1088.7067	252.66876	601.14923	-1347.731	423.12976	657.53534	-1168.8669	424.20819	655.83185	-1243.4402	160.4144	449.18875	-922.12549	80.886627	346.00714	-880.78693	204.4072	179.19406	-913.15564	298.81476	67.109222	-970.70715	319.77161	55.15913	-1028.8978	161.53494	39.045181	-938.38837	286.55005	542.01971	-1431.407	91.288895	339.89325	-1533.5743	131.5336	266.4747	-1531.844	289.53622	71.555466	-1447.8258	317.79846	54.20871	-1376.83	162.48244	40.875713	-1474.8448
188	0.935	287.73502	1022.768	-1213.3754	149.63864	935.86542	-1205.5363	317.3884	943.25848	-1361.8633	256.68793	580.98035	-1088.9353	252.91631	598.87708	-1347.9958	423.32837	655.08112	-1169.0002	424.38388	653.40686	-1243.392	160.2002	448.31714	-922.12878	80.291718	345.62366	-880.53125	204.05499	179.03993	-913.08081	298.70276	67.089439	-970.78949	319.69586	55.218311	-1029.0195	161.48344	39.00214	-938.40594	287.00696	540.25159	-1431.4167	90.806572	339.31494	-1533.9895	131.15578	266.01587	-1532.2506	289.51721	71.492538	-1447.8152	317.74011	54.27446	-1376.7828	162.48735	40.831512	-1474.8615
189	0.94	287.51303	1020.296	-1213.5322	149.47147	933.17749	-1205.6794	317.1524	940.79907	-1362.0732	256.80295	578.63416	-1089.1229	253.17839	596.7132	-1348.2814	423.50711	652.6864	-1169.1819	424.62286	651.16791	-1243.4362	160.48289	447.59671	-922.81854	79.772415	345.21487	-880.35144	203.72754	178.94415	-913.00562	295.48322	69.464439	-959.78656	320.26675	55.557049	-1029.3213	161.48454	38.947651	-938.45569	287.315	538.57599	-1431.5438	90.420914	338.73068	-1534.4666	130.78598	265.57162	-1532.6217	289.5098	71.448395	-1447.8303	317.76062	54.305141	-1376.8777	162.49698	40.733826	-1474.8783
190	0.945	287.26813	1017.9161	-1213.6426	149.25502	930.68665	-1205.7864	316.89944	938.49768	-1362.1659	256.8511	576.3501	-1089.1821	253.38921	594.5824	-1348.3998	423.63101	650.3587	-1169.1035	424.8075	648.88593	-1243.4271	159.80901	446.68747	-922.22351	79.319229	344.8497	-880.23981	203.41994	178.84859	-912.98981	295.2793	69.425697	-959.62695	320.17154	55.609966	-1029.386	161.43515	38.938889	-938.52991	287.58066	537.04407	-1431.6483	90.001648	338.28384	-1534.8954	130.40924	265.13092	-1532.9399	289.46942	71.416878	-1447.8169	317.66736	54.385742	-1376.7788	162.49182	40.676674	-1474.8655
191	0.95	287.08713	1015.5815	-1213.7573	149.09897	928.18835	-1205.8529	316.6384	936.10962	-1362.3649	257.05597	574.13391	-1089.5132	253.5806	592.56677	-1348.6167	423.74716	648.07532	-1168.9426	424.96603	646.62775	-1243.4304	159.65553	445.83508	-922.32574	78.791832	344.35699	-880.11719	203.159	178.70274	-912.99945	295.2496	68.648582	-960.38507	319.47751	55.299774	-1029.326	161.38701	38.964424	-938.63434	287.79022	535.44843	-1431.59	89.518974	337.78989	-1535.3357	129.95335	264.76651	-1533.2054	289.41141	71.42971	-1447.7976	317.73676	54.454979	-1376.8584	162.45906	40.642036	-1474.8685
192	0.955	286.86588	1013.2843	-1213.8948	148.88168	925.84381	-1205.9532	316.38397	933.93713	-1362.4359	257.07288	571.97601	-1089.4733	253.6763	590.57513	-1348.6975	423.88391	645.86096	-1168.929	425.08353	644.34143	-1243.4474	159.45587	444.96875	-922.40863	78.315811	343.99023	-879.97791	202.87369	178.50368	-912.99768	295.19891	68.691254	-960.33771	319.42969	55.431885	-1029.4491	161.32487	38.962135	-938.63708	287.93741	534.0968	-1431.6814	89.022522	337.35745	-1535.6719	129.53673	264.41321	-1533.46	289.33591	71.501534	-1447.7797	317.66183	54.511662	-1376.7303	162.43819	40.662483	-1474.9014
193	0.96	286.65582	1011.0451	-1213.9937	148.67941	923.35992	-1205.9397	316.25	931.88788	-1362.6321	257.11612	569.89227	-1089.528	253.73012	588.69678	-1348.8441	424.06247	643.69543	-1169.1089	425.19156	642.19202	-1243.5	159.25253	444.21173	-922.53839	77.81636	343.5658	-879.88165	202.56863	178.32686	-912.96881	295.14865	68.685341	-960.21643	319.92841	55.931229	-1029.7843	161.30136	38.971622	-938.66229	288.09555	532.69708	-1431.7812	88.509094	336.93591	-1536.0457	129.09613	264.04996	-1533.7347	289.28235	71.516365	-1447.7686	317.52917	54.601379	-1376.6063	162.44057	40.679375	-1474.9155
194	0.965	286.45554	1008.9454	-1214.1304	148.58611	921.35474	-1206.1155	316.06451	929.78217	-1362.7784	257.25403	567.93854	-1089.7533	253.83252	586.7356	-1348.9578	424.20773	641.55548	-1169.4196	425.38995	640.09772	-1243.6719	159.04172	443.49097	-922.60297	77.330215	343.19095	-879.81195	202.28336	178.22139	-912.97266	295.37198	68.715546	-960.02252	319.87076	55.917297	-1029.8778	161.29146	38.917751	-938.71765	288.20282	531.26111	-1431.795	88.015701	336.41629	-1536.3696	128.66263	263.61337	-1533.9642	289.23248	71.4879	-1447.7563	317.43933	54.624805	-1376.5679	162.40578	40.610172	-1474.9153
195	0.97	286.26212	1006.9172	-1214.2291	148.50789	919.21661	-1206.332	315.82452	927.76727	-1362.8345	257.30035	566.03009	-1089.7147	253.8918	584.77734	-1349.0073	424.35974	639.45374	-1169.7439	425.57169	638.23895	-1243.8317	159.30716	442.85818	-923.41443	76.83934	342.92419	-879.6731	202.01926	178.17116	-912.98944	295.53119	69.129265	-961.4436	319.81064	55.872463	-1029.9761	161.25533	38.916405	-938.84967	288.32547	529.81854	-1431.7411	87.536781	335.89078	-1536.6989	128.27359	263.17914	-1534.1956	289.16281	71.416496	-1447.7435	317.4162	54.610104	-1376.6182	162.40591	40.49556	-1474.926
196	0.975	286.073	1004.9396	-1214.3412	148.39851	917.04578	-1206.4229	315.63763	925.78967	-1363.0037	257.41852	564.10034	-1089.8455	253.96925	582.89105	-1349.0574	424.4798	637.4491	-1169.886	425.67477	636.1839	-1244.0045	158.6059	442.05328	-922.8869	76.368965	342.5694	-879.60364	201.73851	178.05382	-913.0144	295.53986	68.842636	-962.1925	319.75723	55.903957	-1030.0778	161.21579	38.882225	-938.86182	288.33716	528.57428	-1431.8707	87.062027	335.38467	-1536.9653	127.85993	262.74771	-1534.4171	289.10208	71.400162	-1447.7399	318.0321	54.407402	-1378.0863	162.37146	40.44516	-1474.9225
